<?xml version="1.0" encoding="utf-8"?>
<!-- Generator: Adobe Illustrator 23.0.2, SVG Export Plug-In . SVG Version: 6.00 Build 0)  -->
<svg version="1.1" id="Camada_1" xmlns="http://www.w3.org/2000/svg" xmlns:xlink="http://www.w3.org/1999/xlink" x="0px" y="0px"
	 viewBox="0 0 25 21" style="enable-background:new 0 0 25 21;" xml:space="preserve">
<style type="text/css">
	.st0{fill:none;stroke:#FFFFFF;stroke-linecap:round;stroke-linejoin:round;}
</style>
<title>camera</title>
<desc>Created with Sketch.</desc>
<g id="Page-1">
	<g id="Outline" transform="translate(-50.000000, -102.000000)">
		<g id="camera" transform="translate(50.000000, 102.000000)">
			<path id="Stroke-1" class="st0" d="M22.5,4.5h-0.9c-4.1,0-3.3-4-8.2-4h-0.9h-0.9c-4.9,0-4.1,4-8.2,4H2.5c-1.1,0-2,0.9-2,2v12
				c0,1.1,0.9,2,2,2h20c1.1,0,2-0.9,2-2v-12C24.5,5.4,23.6,4.5,22.5,4.5z"/>
			<path id="Stroke-3" class="st0" d="M18.5,11.5c0,3.3-2.7,6-6,6s-6-2.7-6-6s2.7-6,6-6S18.5,8.2,18.5,11.5z"/>
			<path id="Stroke-5" class="st0" d="M16.5,11.5c0,2.2-1.8,4-4,4s-4-1.8-4-4s1.8-4,4-4S16.5,9.3,16.5,11.5z"/>
			<path id="Stroke-7" class="st0" d="M0.5,10.5h6"/>
			<path id="Stroke-9" class="st0" d="M18.5,10.5h6"/>
			<path id="Stroke-11" class="st0" d="M20.5,7c0,0.3-0.2,0.5-0.5,0.5S19.5,7.3,19.5,7s0.2-0.5,0.5-0.5S20.5,6.7,20.5,7z"/>
		</g>
	</g>
</g>
</svg>
